# xmcd
#
# Track frame offsets: 
#        150
#        39940
#        79254
#        121157
#        160630
#        200325
#
# Disc length: 3206 seconds
#
# Revision: 2
# Processed by: cddbd v1.5.1PL0 Copyright (c) Steve Scherf et al.
# Submitted via: ExactAudioCopy v0.95a3
#
DISCID=3d0c8406
DTITLE=Ustad Shujat Khan - Lajo Lajo
DYEAR=1995
DGENRE=Hindi Classical
TTITLE0=Lajo Lajo
TTITLE1=Nit De Vichore
TTITLE2=Rooh Le Gaya
TTITLE3=Bin Dekhe
TTITLE4=Hamari Atariya Pe
TTITLE5=Rangi Saari
EXTD=
EXTT0=
EXTT1=
EXTT2=
EXTT3=
EXTT4=
EXTT5=
PLAYORDER=
